<svg id="Layer_1" data-name="Layer 1" xmlns="http://www.w3.org/2000/svg" viewBox="0 0 529 198.07"><path d="M177.73,205.29a11.35,11.35,0,0,0-7.83,3.22A15.49,15.49,0,0,1,159,213c-7.71,0-12.88-5.6-12.88-13.86-.23-13.12,13.48-17.91,23-10.08,7.18,5.59,18.66,1.64,18.33-8.4a10.8,10.8,0,0,0-3.49-8c-6.87-6-15.27-9-24.92-9-22,0-37,14.42-37,35.42s15,35.42,37,35.42c10.77,0,20.15-3.64,26.59-10.22C192.14,217.31,188.35,205,177.73,205.29Z" transform="translate(-28.7 -36.57)"/><path d="M250.25,164.34c-7.42,0-13.16,3.08-16.66,9.24h-.28c-1.12-5.6-5.32-8.82-11.34-8.82-7.28,0-11.76,4.76-11.76,12.46v44.24c0,7.7,4.48,12.46,11.76,12.46s11.76-4.76,11.76-12.46V203.68c0-12.32,6-15.82,16.52-15.82,6.86,0,11.62-4.48,11.62-11.76S257.11,164.34,250.25,164.34Z" transform="translate(-28.7 -36.57)"/><path d="M454.21,164.55a10.79,10.79,0,0,0-10.64,7.7l-9.52,28.14h-.28L423,172.25c-1.68-4.48-4.9-7.7-10.5-7.7-5.32,0-8.68,3.22-10.36,7.7l-10.92,28.56h-.28l-9.66-28.56c-1.82-5.18-5.6-7.7-11.06-7.7-9.47-.16-14.06,9.3-10.36,17.64l18.06,43c2.38,5.74,6.58,8.54,12,8.54s9.8-2.8,12-8.54l10.08-26.6h.28l10.22,26.6c2.24,5.74,6.44,8.54,11.9,8.54s9.52-2.8,11.9-8.54l17.92-43C468.16,174,463.79,164.41,454.21,164.55Z" transform="translate(-28.7 -36.57)"/><path d="M331,210c-8.94,6.22-21,8.4-29,1.19,21.82,1.49,49.13-10.56,36.26-35.35-3.93-6.3-11-10.65-19.37-11.94-24.79-4-46.28,19.08-40.1,43.64C286,236,319.28,242,341.84,225.64,351.9,218,341.62,203.26,331,210ZM301.9,187A17.24,17.24,0,0,1,316,182.72c3.37.64,6.65,2,6.48,5-5.13,4.32-16.75,5.6-24,3.88A16.45,16.45,0,0,1,301.9,187Z" transform="translate(-28.7 -36.57)"/><path d="M539.77,64.13a19,19,0,0,0-20,17.9,28.75,28.75,0,0,1-28.34,26.8c-18.79.24-33.31-19.71-26.9-37.46,7.12-24.19-27-35.71-36-12.15A66.28,66.28,0,0,0,425,80.44c3.09,85.68,124.81,89.08,132.66,3.72A19,19,0,0,0,539.77,64.13Z" transform="translate(-28.7 -36.57)"/><path d="M161.39,80.44a66.28,66.28,0,0,0-3.48-21.22,19,19,0,0,0-36,12.15,28.27,28.27,0,0,1,1.49,9.07A28.38,28.38,0,0,1,66.67,82a19,19,0,0,0-37.94,2.13C36.6,169.55,158.31,166.09,161.39,80.44Z" transform="translate(-28.7 -36.57)"/><path d="M340,138.12c24.89.22,49.18-14.75,60-37.43a66.8,66.8,0,0,0,3.89-49.91A20.34,20.34,0,0,0,365.15,63a26.69,26.69,0,0,1-16.21,32.83C332.6,102,313.6,89.22,313.53,71.68,313.33,58.77,300.39,49,288,52.56a20.46,20.46,0,0,0-15.08,19.12,26.27,26.27,0,0,1-15.25,23.18C237,104.81,214.45,84.68,221.24,63c7.13-26-29.63-37.67-38.78-12.26-19.6,67,59.42,116.07,110.72,68.33A67.47,67.47,0,0,0,340,138.12Z" transform="translate(-28.7 -36.57)"/></svg>