<?xml version="1.0" encoding="UTF-8"?><svg id="Layer_1" xmlns="http://www.w3.org/2000/svg" viewBox="0 0 1126 416.26"><defs><style>.cls-1{fill:#0d0c0d;}</style></defs><g id="Artwork_43"><g><path class="cls-1" d="M978.91,222.52c25.78,0,51.37-6.84,73.69-19.76,21.79-12.62,40.21-30.83,53.07-52.48,8.05-13.56,14.19-28.39,17.48-43.84,2.98-14,5.11-30.87-1.46-44.1-6.7-13.46-20.4-22.51-35.41-23.36-13.5-.76-26.79,5.15-35.26,15.7-9.51,11.84-7.65,26.41-12.39,39.99-8.81,25.21-32.59,43.51-59.7,43.51-31.34,0-59.52-25.19-61.84-56.58-.96-13.09,4-25.59,4.16-38.62,.49-39.59-49.89-58.75-74.88-27.23-2.64,3.33-4.8,7.04-6.4,10.98-6.11,15.01-8.37,32.34-8.37,48.45,0,81.24,66.09,147.33,147.33,147.33Z"/><path class="cls-1" d="M147.03,223.1c49.82,0,97.14-26.03,124.04-67.91,16.27-25.32,24.41-56.04,23.26-86.32-.95-24.92-7.38-57.86-34.52-66.78l-.78-.25c-8.4-2.58-17.51-2.45-25.84,.36-13.51,4.56-23.25,15.09-26.48,28.99-3.66,15.71,3.3,29.2,3.3,44.58,0,34.15-28.85,62.99-62.99,62.99-12.72,0-25.24-4.11-35.65-11.38-10.31-7.21-18.48-17.42-23.09-29.14-3.6-9.15-3.41-18.78-6.08-28.17-4.65-16.34-18.97-28.69-36.01-30.37-2.17-.21-4.36-.26-6.53-.14C15.23,40.95-.07,61.82,0,85.18c.08,27.99,13.14,58.04,29.97,80.03,15.55,20.32,36.37,36.45,59.94,46.39,18.04,7.6,37.55,11.51,57.12,11.51Z"/><path class="cls-1" d="M350.59,393.22c-14.52,14.84-35.67,23.04-59.97,23.04-49.55,0-83.33-32.51-83.33-79.85s33.77-79.86,83.33-79.86c21.78,0,40.72,6.63,56.18,20.2,5.05,4.73,7.89,11.05,7.89,17.99,0,14.83-9.78,24.62-24.62,24.62-6.63,0-12.31-2.21-16.73-5.68-7.89-6-14.83-8.52-22.73-8.52-17.36,0-29.04,12.63-29.04,31.25s11.68,31.25,29.04,31.25c9.78,0,17.99-3.79,24.62-10.1,5.68-5.05,11.36-7.26,17.67-7.26,15.15,0,24.94,9.78,24.94,24.62,0,7.26-2.84,13.57-7.26,18.31Z"/><path class="cls-1" d="M493.79,284.41c0,16.41-10.66,26.51-26.02,26.51-23.51,0-36.99,7.89-36.99,35.67v40.08c0,17.36-10.03,28.09-26.33,28.09s-26.33-10.73-26.33-28.09v-99.74c0-17.36,10.03-28.09,26.33-28.09,13.48,0,22.88,7.26,25.39,19.88h.63c7.84-13.89,20.69-20.83,37.3-20.83,15.36,0,26.02,10.1,26.02,26.51Z"/><path class="cls-1" d="M552.91,347.76c-2.4-.01-4.15,2.33-3.37,4.6,4.25,12.43,13.56,21.17,32.3,21.17,10.68,0,20.82-4.6,30.16-9.02,10.85-5.14,26.79-7.25,34.23,4.57,9.23,14.66-4.86,28.3-17.05,35.08-14.25,7.92-31.13,11.66-47.35,11.66-50.82,0-77.98-34.52-77.98-82.18s27.17-77.53,76.72-77.53c39.79,0,72.07,31.56,72.07,65.65v2.84c0,15.15-5.63,23.59-20.78,23.59l-78.95-.44Zm52.15-32.05c2.55,0,4.26-2.67,3.16-4.96-4.93-10.24-15.84-16.18-28.16-16.18-13.1,0-23.14,6.14-28.06,16.17-1.13,2.3,.59,4.98,3.15,4.98h49.92Z"/><path class="cls-1" d="M741.14,415.17c-11.31,0-22.71-2.89-33.36-8.96-43.3-24.63-44.76-80.37-31.69-124.32,4.12-13.87,18.68-21.79,32.54-17.75,13.97,4.07,21.82,19.19,17.72,33.16-7.17,24.43-7.9,54.5,7.42,63.22,11.95,6.8,22.93-5.04,27.07-12.25,4.11-7.17,6.41-25.1,6.66-34.96,.37-14.25,12.03-25.63,26.28-25.63h.04c14.27,.02,25.92,11.41,26.24,25.68,.25,9.82,2.54,27.75,6.66,34.91,4.14,7.21,15.12,19.04,27.07,12.25,15.41-8.77,14.58-39.14,7.3-63.65-4.14-13.92,3.79-28.55,17.71-32.69,13.91-4.14,28.55,3.79,32.69,17.7,13.07,43.95,11.6,99.69-31.69,124.32-25.43,14.47-55.1,10.9-77.65-7.03-4.91-3.9-11.81-3.91-16.71,0-13.1,10.42-28.61,15.99-44.29,15.99Z"/><path class="cls-1" d="M816.02,76.24c.12-8.69-.51-17.39-2.03-25.99-2.46-13.94-7.25-28.1-17.41-37.95-11.23-10.89-28.55-15.05-43.5-10.43-1.16,.36-2.3,.79-3.42,1.25-12.32,4.7-22.68,14.87-26.26,27.62-4.76,16.95,1.47,35.07-.35,52.59-2.68,25.75-24.85,48.14-50.58,51.06-6.41,.73-12.87,.23-19.1-1.31-18.21-5.01-34.17-18.86-40.52-36.77-4.33-12.2-4.6-25.72-10.25-37.36-7.14-14.71-23.08-24.73-39.44-24.71-.05,0-.1,0-.15,0-.05,0-.1,0-.15,0-16.36-.02-32.3,10-39.44,24.71-5.65,11.64-5.93,25.17-10.25,37.36-6.35,17.91-22.3,31.76-40.52,36.77-6.22,1.54-12.69,2.04-19.1,1.31-25.72-2.92-47.9-25.31-50.58-51.06-1.82-17.52,4.41-35.64-.35-52.59-3.58-12.75-13.94-22.92-26.26-27.62-1.12-.46-2.26-.89-3.42-1.25-14.95-4.62-32.27-.47-43.5,10.43-10.16,9.86-14.96,24.02-17.41,37.95-1.52,8.6-2.15,17.3-2.03,25.99,.03,15.65,2.83,31.13,7.95,45.87,12.12,36.07,37.35,67.89,71.02,85.78,9.87,5.24,20.34,9.2,31.12,11.94,44.84,12.25,95.22,1.85,131.88-26.62,6.49-5.04,15.58-5.04,22.07,0,36.66,28.47,87.04,38.87,131.88,26.62,10.78-2.74,21.24-6.7,31.12-11.94,33.67-17.89,58.91-49.71,71.03-85.78,5.13-14.74,7.92-30.22,7.95-45.87Z"/></g></g></svg>