<?xml version="1.0" encoding="UTF-8"?>
<svg id="Layer_1"
    xmlns="http://www.w3.org/2000/svg" viewBox="0 0 346.3 394.29">
    <defs>
        <style>.cls-1{fill:#eda9c7;}</style>
    </defs>
    <path class="cls-1" d="M260.34,195.08c-2.07-.99-.77-3.32-.05-5.54,27.51-85.52,115.62-121.36,75.88-172.01-46.45-59.19-129.78,41.47-140.7,153.59-1.17,11.98,.38,2.6-42.04,6.28-2.65,.23-2.28-3.04-2.59-6.28C139.76,57.44,55.87-40.75,10.13,17.53-29.61,68.18,58.51,104.04,86.01,189.54c.71,2.21,2.02,4.56-.05,5.54-120.37,57.32-68.95,199.21,87.19,199.21s206.83-142.24,87.19-199.21Zm-44.81-16.85c14.84-116.3,75.36-113.15,74.61-83.88-.19,7.44-4.62,12.91-8.71,19.11-34.44,52.11-33.7,75.69-38.76,73.93-23.11-8.05-27.59-5.6-27.13-9.16ZM56.16,94.36c-.8-31.12,57.18-26.58,72.63,69.92,2.24,14.03,2.64,15.69,.4,16.14-24.35,4.93-26.88,9.3-28.09,5.74-19.02-56.22-44.58-77.83-44.94-91.8Zm55.35,170.3c-17.19,26.76-57.16,12.67-57.24-14.78-.02-5.7,4.19-10.15,9.76-9.6,8.38,.83,7.9,9.85,8.89,12.36,5.5,13.98,25.7,9.56,25.7-4.74,0-3.25-1.47-6.1-.7-9.41,1.2-5.14,6.49-7.6,11.05-6.2,10.05,3.21,8.95,22.41,2.54,32.38Zm98.4,11.13c-10.8,5.73-24.96,4.29-34.54-3.31-4.98-3.95-12.61,11.97-33.33,5.56-27.92-8.65-27.35-47.02-10.76-46.1,11.13,.62,7.8,14.75,8.09,17.54,1.33,12.78,19.35,14.82,23.51,2.67,1.04-3.02,.98-13.03,10.32-13.04s9.49,10.28,10.49,13.11c4.39,12.37,22.45,9.92,23.5-2.72,.34-4.04-3.26-14.33,6.11-17.22,16.61-5.13,19.99,31.09-3.39,43.51Zm81.53-21.42c-7.51,35.28-61.57,31.01-61.57-6.6,0-22.71,19.06-17.54,18.93-6.8-.03,2.75-1.08,5.39-.88,8.16,1,13.54,20.72,16.92,25.66,2.76,.71-2.05,.64-12.29,10.06-11.76,5.51,.31,9.82,4.7,7.79,14.24Z"/>
</svg>
