<svg xmlns="http://www.w3.org/2000/svg" x="0px" y="0px"
width="30" height="30"
viewBox="0 0 172 172"
style=" fill:#000000;"><g fill="none" fill-rule="nonzero" stroke="none" stroke-width="1" stroke-linecap="butt" stroke-linejoin="miter" stroke-miterlimit="10" stroke-dasharray="" stroke-dashoffset="0" font-family="none" font-weight="none" font-size="none" text-anchor="none" style="mix-blend-mode: normal"><path d="M0,172v-172h172v172z" fill="none"></path><g fill="#333"><path d="M28.66667,17.2c-3.16643,0 -5.73333,2.5669 -5.73333,5.73333c0.00121,0.51864 0.07278,1.03472 0.21276,1.53411c0.0037,0.01121 0.00743,0.02241 0.0112,0.03359l5.50938,38.56563l-17.2,11.46667l120.4,11.46667l-120.4,11.46667l17.2,11.46667l-5.50938,38.57683c-0.14579,0.50609 -0.22115,1.02985 -0.22396,1.55651c0,3.16643 2.5669,5.73333 5.73333,5.73333c0.76223,-0.00413 1.51599,-0.16021 2.21719,-0.45911l0.0112,0.0112l0.24635,-0.12317l0.12318,-0.05599c0.03378,-0.01833 0.06738,-0.03699 0.10078,-0.05599l125.67422,-62.83151l0.0112,-0.02239c2.10882,-0.90013 3.47854,-2.97014 3.48255,-5.26302c-0.00144,-2.29965 -1.37681,-4.37592 -3.49375,-5.27422c0,-0.00373 0,-0.00746 0,-0.0112h-0.0112l-125.61823,-62.80911c-0.16728,-0.09443 -0.3392,-0.18038 -0.5151,-0.25755c-0.70546,-0.29652 -1.46314,-0.44882 -2.22839,-0.44792z"></path></g></g></svg>