<svg xmlns="http://www.w3.org/2000/svg" x="0px" y="0px"
width="30" height="30"
viewBox="0 0 172 172"
style=" fill:#000000;"><g fill="none" fill-rule="nonzero" stroke="none" stroke-width="1" stroke-linecap="butt" stroke-linejoin="miter" stroke-miterlimit="10" stroke-dasharray="" stroke-dashoffset="0" font-family="none" font-weight="none" font-size="none" text-anchor="none" style="mix-blend-mode: normal"><path d="M0,172v-172h172v172z" fill="none"></path><g fill="#000"><path d="M160.53333,39.77213c-5.4868,2.43667 -11.38067,4.0764 -17.56693,4.816c6.31813,-3.784 11.1628,-9.77533 13.44467,-16.91907c-5.90533,3.50307 -12.4528,6.04867 -19.42453,7.42467c-5.57853,-5.94547 -13.52493,-9.66067 -22.31987,-9.66067c-16.8904,0 -30.5816,13.69693 -30.5816,30.5816c0,2.39653 0.2752,4.73573 0.7912,6.966c-25.41587,-1.2728 -47.94787,-13.4504 -63.038,-31.9576c-2.62587,4.51787 -4.13373,9.7696 -4.13373,15.38253c0,10.60667 5.39507,19.9692 13.59947,25.45027c-5.01093,-0.16053 -9.72947,-1.53653 -13.85173,-3.82413c0,0.13187 0,0.25227 0,0.38413c0,14.82067 10.53787,27.18173 24.53293,29.98533c-2.5628,0.69947 -5.26893,1.07213 -8.06107,1.07213c-1.96653,0 -3.8872,-0.19493 -5.75053,-0.54467c3.89293,12.14893 15.1876,20.99547 28.5692,21.242c-10.46333,8.2044 -23.65,13.09493 -37.98333,13.09493c-2.46533,0 -4.902,-0.14333 -7.29853,-0.43c13.5364,8.67453 29.60693,13.73707 46.88147,13.73707c56.25547,0 87.00907,-46.60053 87.00907,-87.0148c0,-1.3244 -0.02867,-2.64307 -0.086,-3.956c5.97987,-4.3172 11.16853,-9.7008 15.26787,-15.82973z"></path></g></g></svg>